<?xml version="1.0" encoding="UTF-8"?>
<svg width="16px" height="16px" viewBox="0 0 16 16" version="1.1" xmlns="http://www.w3.org/2000/svg" xmlns:xlink="http://www.w3.org/1999/xlink">
    <!-- Generator: sketchtool 49.3 (51167) - http://www.bohemiancoding.com/sketch -->
    <title>E2BFC7BC-94CF-4349-BF2B-C5BFCAC6DD45</title>
    <desc>Created with sketchtool.</desc>
    <defs></defs>
    <g id="Actual" stroke="none" stroke-width="1" fill="none" fill-rule="evenodd">
        <g id="A-01-01-01-home" transform="translate(-1149.000000, -32.000000)" fill="#333333">
            <g id="Group-4" transform="translate(1149.000000, 32.000000)">
                <g id="log-in">
                    <path d="M13.8115558,0 L2.86933502,0 C1.66076673,0 0.680890851,0.979875874 0.680890851,2.18844416 L0.680890851,4.37688833 L1.77511293,4.37688833 L1.77511293,2.18844416 C1.77511293,1.58443357 2.26532443,1.09422208 2.86933502,1.09422208 L13.8115558,1.09422208 C14.4155664,1.09422208 14.9057779,1.58443357 14.9057779,2.18844416 L14.9057779,13.130665 C14.9057779,13.7346756 14.4155664,14.2248871 13.8115558,14.2248871 L2.86933502,14.2248871 C2.26532443,14.2248871 1.77511293,13.7346756 1.77511293,13.130665 L1.77511293,10.9422208 L0.680890851,10.9422208 L0.680890851,13.130665 C0.680890851,14.3392333 1.66076673,15.3191091 2.86933502,15.3191091 L13.8115558,15.3191091 C15.0201241,15.3191091 16,14.3392333 16,13.130665 L16,2.18844416 C16,0.979875874 15.0201241,0 13.8115558,0 L13.8115558,0 Z M9.10356359,11.0336017 C8.89884758,11.2543633 8.89884758,11.6132426 9.10356359,11.8340042 C9.3082796,12.0553319 9.64107435,12.0553319 9.84631528,11.8340042 L13.467689,7.92878707 C13.5768709,7.81048146 13.6235882,7.65368408 13.6162394,7.49971697 C13.6235882,7.34574987 13.5768709,7.18895248 13.467689,7.07121293 L9.84631528,3.16599579 C9.64107435,2.94466807 9.3082796,2.94466807 9.10356359,3.16599579 C8.89884758,3.38619139 8.89884758,3.7450706 9.10356359,3.96639831 L11.8556817,6.93366144 L0.524912852,6.93366144 C0.234636045,6.93366144 0,7.18725432 0,7.49971697 C0,7.81274568 0.234636045,8.06577251 0.524912852,8.06577251 L11.8556817,8.06577251 L9.10356359,11.0336017 L9.10356359,11.0336017 Z" id="Fill-57"></path>
                </g>
            </g>
        </g>
    </g>
</svg>